# xmcd
#
# Track frame offsets:
#	150
#	14197
#	28712
#	42488
#	57307
#	72516
#	87742
#	102573
#	116965
#	132165
#	146630
#	161517
#	175337
#	189344
#	204193
#	218324
#	232582
#	247426
#
# Disc length: 3508 seconds
#
# Revision: 0
# Processed by: cddbd v1.5.2PL0 Copyright (c) Steve Scherf et al.
# Submitted via: EasyCDDAExtractor 16.0.6.1
#
DISCID=0f0db212
DTITLE=Συλλογικός δίσκος - Ρεμπέτ. σεργιάνι 1936-50 Τραγούδια χωρισμού
DYEAR=1900
DGENRE=Ρεμπέτικη
TTITLE0=Γεωργακοπούλου Ιωάννα - Ο πασατέμπος [Μανώλης Χιώτης]
TTITLE1=Περπινιάδης Στελλάκης - Πανούργα [Γρηγόρης Ασίκης]
TTITLE2=Ρούκουνας Κώστας ή Σαμιωτάκης - Δεν θέλω πια να μού μιλάς [Κώστας Ρούκ
TTITLE2=ουνας]
TTITLE3=Περπινιάδης Στελλάκης - Η γάτα [Στελλάκης Περπινιάδης-Νίκος Μάθεσης]
TTITLE4=Τσιτσάνης Βασίλης-Γεωργακοπούλου Ιωάννα - Η παραδόπιστη [Βασίλης Τσιτσ
TTITLE4=άνης]
TTITLE5=Παπαϊωάννου Γιάννης - Βαδίζω με παράπονο [Γιώργος Φωτίδας-Γιάν. Παπαϊω
TTITLE5=άννου]
TTITLE6=Γεωργακοπούλου Ιωάννα - Η αχάριστη [Βασίλης Τσιτσάνης]
TTITLE7=Παγιουμτζής Στράτος - Τώρα γυρνάς στις γειτονιές [Βασίλης Τσιτσάνης]
TTITLE8=Περπινιάδης Στελλάκης - Διαμάντω αλανιάρα [Γιάννης Εϊτζιρίδης ή Γιοβάν
TTITLE8=Τσαούς]
TTITLE9=Κάβουρας Γιώργος - Παραπονιέμαι στον ντουνιά [Κώστας Σκαρβέλλης]
TTITLE10=Παγιουμτζής Στράτος - Σε γελάσανε [Κώστας Σκαρβέλλης]
TTITLE11=Γεωργακοπούλου Ιωάννα - Μ' έχεις κάνει σαν κουρέλι [Δημήτρης Σέμσης-Κ
TTITLE11=ώσ. Καρίπης]
TTITLE12=Περπινιάδης Στελλάκης - Δεν σε θέλω, δεν σε θέλω [Κώστας Καρίπης]
TTITLE13=Περδικόπουλος Δημήτρης - Η ώρα πέρασε [Νίκος Ταμβάκης]
TTITLE14=Αμπατζή Ρίτα - Το βλέπω θα πεθάνω [Κώστας Καρίπης]
TTITLE15=Περπινιάδης Στελλάκης - Μαστόρισσα καμωματού [Κώστας Σκαρβέλλης]
TTITLE16=Παπαϊωάννου Γιάννης - Τι μάγια σ' έχουν ποτίσει [Γιάννης Παπαϊωάννου]
TTITLE17=Γεωργακοπούλου Ιωάννα - Όσο βαρειά είν' τα σίδερα [Γιώργος Μητσάκης]
EXTD=
EXTT0=
EXTT1=
EXTT2=
EXTT3=
EXTT4=
EXTT5=
EXTT6=
EXTT7=
EXTT8=
EXTT9=
EXTT10=
EXTT11=
EXTT12=
EXTT13=
EXTT14=
EXTT15=
EXTT16=
EXTT17=
PLAYORDER=
